HIERARCHY
ROOT hips
{
  OFFSET 0 10.6860622 2.3727825e-15
  CHANNELS 6 Xposition Yposition Zposition Yrotation Xrotation Zrotation
  JOINT leftUpperLeg
  {
    OFFSET 0.6642549969 -0.9402397400000004 0
    CHANNELS 3 Yrotation Xrotation Zrotation
    JOINT leftLowerLeg
    {
      OFFSET 0 -3.997221335632195 0
      CHANNELS 3 Yrotation Xrotation Zrotation
      JOINT leftFoot
      {
        OFFSET -0.13777839790000004 -4.6145792000000005 -0.22186036399999998
        CHANNELS 3 Yrotation Xrotation Zrotation
        JOINT leftToes
        {
          OFFSET -0.03777410834999995 -0.9130806927000008 0.85230013
          CHANNELS 3 Yrotation Xrotation Zrotation
          End Site
          {
            OFFSET -0.03777410834999995 -0.9130806927000008 0.85230013
          }
        }
      }
    }
  }
  JOINT rightUpperLeg
  {
    OFFSET -0.6642778626 -0.9402397400000004 0
    CHANNELS 3 Yrotation Xrotation Zrotation
    JOINT rightLowerLeg
    {
      OFFSET 0 -3.997221452859387 0
      CHANNELS 3 Yrotation Xrotation Zrotation
      JOINT rightFoot
      {
        OFFSET 0.1377926176 -4.6145792000000005 -0.22185782299999995
        CHANNELS 3 Yrotation Xrotation Zrotation
        JOINT rightToes
        {
          OFFSET 0.037780746850000047 -0.9130806927000008 0.85230167
          CHANNELS 3 Yrotation Xrotation Zrotation
          End Site
          {
            OFFSET 0.037780746850000047 -0.9130806927000008 0.85230167
          }
        }
      }
    }
  }
  JOINT spine
  {
    OFFSET 0 0.13988381660000015 0
    CHANNELS 3 Yrotation Xrotation Zrotation
    JOINT chest
    {
      OFFSET 0 0.6191039003973773 0
      CHANNELS 3 Yrotation Xrotation Zrotation
      JOINT upperChest
      {
        OFFSET 0 0.9855186130586943 0
        CHANNELS 3 Yrotation Xrotation Zrotation
        JOINT leftShoulder
        {
          OFFSET 0.1807663869 1.5087829790000005 0
          CHANNELS 3 Yrotation Xrotation Zrotation
          JOINT leftUpperArm
          {
            OFFSET 0.5985063006419806 0 0
            CHANNELS 3 Yrotation Xrotation Zrotation
            JOINT leftLowerArm
            {
              OFFSET 2.2993332369501065 0 0
              CHANNELS 3 Yrotation Xrotation Zrotation
              JOINT leftHand
              {
                OFFSET 2.395047042602395 0 0
                CHANNELS 3 Yrotation Xrotation Zrotation
                JOINT leftIndexProximal
                {
                  OFFSET 0.5766295810000004 0.04556643899499946 0.17265095988184
                  CHANNELS 3 Yrotation Xrotation Zrotation
                  JOINT leftIndexIntermediate
                  {
                    OFFSET 0.2957229000000008 -0.019352197700001517 -0.007932640616999987
                    CHANNELS 3 Yrotation Xrotation Zrotation
                    JOINT leftIndexDistal
                    {
                      OFFSET 0.19008243099999922 -0.012484908149998475 -0.002786250786000012
                      CHANNELS 3 Yrotation Xrotation Zrotation
                      End Site
                      {
                        OFFSET 0.19008243099999922 -0.012484908149998475 -0.002786250786000012
                      }
                    }
                  }
                }
                JOINT leftMiddleProximal
                {
                  OFFSET 0.5834975091000001 0.0524350405149987 0.02204081888183999
                  CHANNELS 3 Yrotation Xrotation Zrotation
                  JOINT leftMiddleIntermediate
                  {
                    OFFSET 0.33880573540000003 -0.019871473270000717 -0.00000971183179999946
                    CHANNELS 3 Yrotation Xrotation Zrotation
                    JOINT leftMiddleDistal
                    {
                      OFFSET 0.20676022730000088 -0.012221336379999448 0.0001471936708000235
                      CHANNELS 3 Yrotation Xrotation Zrotation
                      End Site
                      {
                        OFFSET 0.20676022730000088 -0.012221336379999448 0.0001471936708000235
                      }
                    }
                  }
                }
                JOINT leftLittleProximal
                {
                  OFFSET 0.5344154683999995 -0.012880921405001189 -0.24414037221816004
                  CHANNELS 3 Yrotation Xrotation Zrotation
                  JOINT leftLittleIntermediate
                  {
                    OFFSET 0.21758961730000093 -0.011650919939999227 0.011893592810000034
                    CHANNELS 3 Yrotation Xrotation Zrotation
                    JOINT leftLittleDistal
                    {
                      OFFSET 0.1475273964999999 -0.008152365682999818 0.006001092492999946
                      CHANNELS 3 Yrotation Xrotation Zrotation
                      End Site
                      {
                        OFFSET 0.1475273964999999 -0.008152365682999818 0.006001092492999946
                      }
                    }
                  }
                }
                JOINT leftRingProximal
                {
                  OFFSET 0.5799399463000003 0.026911854694997794 -0.12150566991816003
                  CHANNELS 3 Yrotation Xrotation Zrotation
                  JOINT leftRingIntermediate
                  {
                    OFFSET 0.26167887460000006 -0.013480186499999602 0.010996293000000053
                    CHANNELS 3 Yrotation Xrotation Zrotation
                    JOINT leftRingDistal
                    {
                      OFFSET 0.17667108799999987 -0.008990287899999228 0.0055541023999999065
                      CHANNELS 3 Yrotation Xrotation Zrotation
                      End Site
                      {
                        OFFSET 0.17667108799999987 -0.008990287899999228 0.0055541023999999065
                      }
                    }
                  }
                }
                JOINT leftThumbProximal
                {
                  OFFSET 0.11018806699999972 -0.09448718900500053 0.17047963138184
                  CHANNELS 3 Yrotation Xrotation Zrotation
                  JOINT leftThumbIntermediate
                  {
                    OFFSET 0.31062601459999983 -0.08126270900000132 0.15443142000000007
                    CHANNELS 3 Yrotation Xrotation Zrotation
                    JOINT leftThumbDistal
                    {
                      OFFSET 0.21627175790000086 -0.08833193599999878 0.018771167799999988
                      CHANNELS 3 Yrotation Xrotation Zrotation
                      End Site
                      {
                        OFFSET 0.21627175790000086 -0.08833193599999878 0.018771167799999988
                      }
                    }
                  }
                }
              }
            }
          }
        }
        JOINT neck
        {
          OFFSET 0 1.5463305265074576 0
          CHANNELS 3 Yrotation Xrotation Zrotation
          JOINT head
          {
            OFFSET 0 0.8456443600000344 0
            CHANNELS 3 Yrotation Xrotation Zrotation
            JOINT leftEye
            {
              OFFSET 0.30408573140000006 0.5104519199999995 0.1276382305
              CHANNELS 3 Yrotation Xrotation Zrotation
              End Site
              {
                OFFSET 0.30408573140000006 0.5104519199999995 0.1276382305
              }
            }
            JOINT rightEye
            {
              OFFSET -0.30409491089999996 0.5104519199999995 0.1276379445
              CHANNELS 3 Yrotation Xrotation Zrotation
              End Site
              {
                OFFSET -0.30409491089999996 0.5104519199999995 0.1276379445
              }
            }
            JOINT jaw
            {
              OFFSET -3.155239131000001e-7 -0.11984121820000082 0.60178107
              CHANNELS 3 Yrotation Xrotation Zrotation
              End Site
              {
                OFFSET -3.155239131000001e-7 -0.11984121820000082 0.60178107
              }
            }
          }
        }
        JOINT rightShoulder
        {
          OFFSET -0.1807303465 1.5087829790000005 0
          CHANNELS 3 Yrotation Xrotation Zrotation
          JOINT rightUpperArm
          {
            OFFSET -0.5985063796536958 0 0
            CHANNELS 3 Yrotation Xrotation Zrotation
            JOINT rightLowerArm
            {
              OFFSET -2.2993322059002854 0 0
              CHANNELS 3 Yrotation Xrotation Zrotation
              JOINT rightHand
              {
                OFFSET -2.395045314457259 0 0
                CHANNELS 3 Yrotation Xrotation Zrotation
                JOINT rightIndexProximal
                {
                  OFFSET -0.5764487688300002 0.0441371204405987 0.17361932004999997
                  CHANNELS 3 Yrotation Xrotation Zrotation
                  JOINT rightIndexIntermediate
                  {
                    OFFSET -0.29573011380000047 -0.01934826376999843 -0.007698921482999974
                    CHANNELS 3 Yrotation Xrotation Zrotation
                    JOINT rightIndexDistal
                    {
                      OFFSET -0.19008373999999884 -0.012503266380000655 -0.0026365778999999897
                      CHANNELS 3 Yrotation Xrotation Zrotation
                      End Site
                      {
                        OFFSET -0.19008373999999884 -0.012503266380000655 -0.0026365778999999897
                      }
                    }
                  }
                }
                JOINT rightMiddleProximal
                {
                  OFFSET -0.5834852037300005 0.05211639405060153 0.02307162440000001
                  CHANNELS 3 Yrotation Xrotation Zrotation
                  JOINT rightMiddleIntermediate
                  {
                    OFFSET -0.33880114510000003 -0.019952774050000954 0.0002455003561999819
                    CHANNELS 3 Yrotation Xrotation Zrotation
                    JOINT rightMiddleDistal
                    {
                      OFFSET -0.20675694929999955 -0.012273788999999091 0.00030209124000002766
                      CHANNELS 3 Yrotation Xrotation Zrotation
                      End Site
                      {
                        OFFSET -0.20675694929999955 -0.012273788999999091 0.00030209124000002766
                      }
                    }
                  }
                }
                JOINT rightLittleProximal
                {
                  OFFSET -0.5346811737299992 -0.011214256288399227 -0.24363941305000003
                  CHANNELS 3 Yrotation Xrotation Zrotation
                  JOINT rightLittleIntermediate
                  {
                    OFFSET -0.21757715980000092 -0.011771559690000988 0.01201554387
                    CHANNELS 3 Yrotation Xrotation Zrotation
                    JOINT rightLittleDistal
                    {
                      OFFSET -0.1475201849000004 -0.00822055339600003 0.006082065407000015
                      CHANNELS 3 Yrotation Xrotation Zrotation
                      End Site
                      {
                        OFFSET -0.1475201849000004 -0.00822055339600003 0.006082065407000015
                      }
                    }
                  }
                }
                JOINT rightRingProximal
                {
                  OFFSET -0.5800810755299999 0.027657985680600072 -0.12066365025000003
                  CHANNELS 3 Yrotation Xrotation Zrotation
                  JOINT rightRingIntermediate
                  {
                    OFFSET -0.26166445029999974 -0.013623118409999302 0.011164098990000045
                    CHANNELS 3 Yrotation Xrotation Zrotation
                    JOINT rightRingDistal
                    {
                      OFFSET -0.17666387530000027 -0.009072900100000503 0.005668185599999959
                      CHANNELS 3 Yrotation Xrotation Zrotation
                      End Site
                      {
                        OFFSET -0.17666387530000027 -0.009072900100000503 0.005668185599999959
                      }
                    }
                  }
                }
                JOINT rightThumbProximal
                {
                  OFFSET -0.10997596379000074 -0.09577489355940072 0.16989765924999997
                  CHANNELS 3 Yrotation Xrotation Zrotation
                  JOINT rightThumbIntermediate
                  {
                    OFFSET -0.31036620999999986 -0.08229339117999834 0.15440884469999996
                    CHANNELS 3 Yrotation Xrotation Zrotation
                    JOINT rightThumbDistal
                    {
                      OFFSET -0.21631306399999906 -0.08825326400000111 0.018656797720000014
                      CHANNELS 3 Yrotation Xrotation Zrotation
                      End Site
                      {
                        OFFSET -0.21631306399999906 -0.08825326400000111 0.018656797720000014
                      }
                    }
                  }
                }
              }
            }
          }
        }
      }
    }
  }
}
MOTION
Frames: 9
Frame Time: 0.03333333333333333
0 11.682712981546562 0 0 0 0 0 0 -5.826343164929014 -0.3712483961610101 -3.6333298826370974 5.838118207697276 0 0 0 0 0 0 0 0 5.826343164929014 0.3712483961610101 -3.6333298826370974 -5.838118207697276 0 0 0 0 0 0 0 -4.610651315171937 0 0 3.0831277533083026 0 0 0 0 0 1.5275236235667615 0 0 0 0 0 0 0 0 0 0 0 0 0 0 0 0 0 0 0 0 0 0 0 0 0 0 0 0 0 0 0 0 0 0 0 0 0 0 0 0 0 0 0 0 0 0 0 0 0 0 0 0 0 0 0 0 1.5275236235667615 0 0 0 0 0 0 0 0 0 0 0 0 0 0 1.5275236235667615 0 0 0 0 0 0 0 0 0 0 0 0 0 0 0 0 0 0 0 0 0 0 0 0 0 0 0 0 0 0 0 0 0 0 0 0 0 0 0 0 0 0 0 0 0 0 0 0 0 0 0 0 0 0 0
-1.3326156692512348 -10.273153810780485 -9.323472987637437 99.01372073895548 0.004194819629578024 -90.01658463364507 7.052790266923446 16.520820426203628 -3.372593858475764 -1.461796379312988 32.74661129202967 3.9477844615255813 7.736310432528266 45.79095744545466 7.157131977297885 0 0 0 -47.46946978365675 -65.826746548576 -20.514207506294476 157.491005956382 64.33635307472935 -172.8862089773998 17.175839801394574 25.73561011305023 11.765747200201742 0 0 0 -2.6454753622894267 -13.150779059175848 3.274676289650274 -0.42913453727620954 -3.468783492860847 7.310419580916786 0 0 0 -14.84696397078817 -3.113683302448193 -22.734710819564057 -49.32464365836636 -39.11813624907483 -25.953203063114895 9.354517275779152 4.454785510437758 -5.173271208119905 -23.784223163462965 -20.28518492712297 -59.55977824086522 0 0 0 0 0 0 0 0 0 0 0 0 0 0 0 0 0 0 0 0 0 0 0 0 0 0 0 0 0 0 0 0 0 0 0 0 0 0 0 0 0 0 0 0 0 -0.0015448283944723819 -0.47722288433926274 8.99292102705525 0 14.99817556871629 0 0 0 0 0 0 0 0 0 0 -46.709178560606965 -8.064469380513001 17.82063938304171 -8.785469426499276 17.354971055720753 29.424110167537048 -28.528678255520944 -17.39809797174543 71.42475180169019 7.092333271071888 12.688460916289506 -30.868947602748875 0 0 0 0 0 0 0 0 0 0 0 0 0 0 0 0 0 0 0 0 0 0 0 0 0 0 0 0 0 0 0 0 0 0 0 0 0 0 0 0 0 0 0 0 0
-1.3549201405658549 -10.273153810780485 -9.313351378301942 98.51349083142348 0.003997773840852095 -90.01595127535262 7.060404144193002 15.621823523364688 -3.493137268709126 -1.420844497284948 33.37872174646872 4.036918091896529 7.736310432528266 45.79095744545466 7.157131977297885 0 0 0 -48.529464660841846 -66.3827112426434 -19.186830013343325 157.491005956382 64.33635307472935 -172.8862089773998 16.84986141117897 25.80649921430992 11.738765653227837 0 0 0 -2.6454753622894267 -13.150779059175848 3.274676289650274 -0.42913453727620954 -3.468783492860847 7.310419580916786 0 0 0 -13.885762597088018 -3.1475704190875864 -22.17287368740943 -50.16693904997863 -39.47858353759689 -26.144447011402296 9.466458001578097 4.4721741215999655 -5.686713272933737 -24.010904469850598 -20.250305301824753 -59.17876422659332 0 0 0 0 0 0 0 0 0 0 0 0 0 0 0 0 0 0 0 0 0 0 0 0 0 0 0 0 0 0 0 0 0 0 0 0 0 0 0 0 0 0 0 0 0 -0.0015448283944723819 -0.47722288433926274 8.99292102705525 0 14.706306388314713 0 0 0 0 0 0 0 0 0 0 -46.709178560606965 -8.064469380513001 17.82063938304171 -8.785467658498234 17.354972844711778 29.424115041741434 -28.528684544075507 -17.398090814095745 71.42476765131792 7.0923337052966575 12.688462666581023 -30.868944598047594 0 0 0 0 0 0 0 0 0 0 0 0 0 0 0 0 0 0 0 0 0 0 0 0 0 0 0 0 0 0 0 0 0 0 0 0 0 0 0 0 0 0 0 0 0
-1.3772243434882039 -10.273153810780485 -9.303229500574176 98.0131044097322 0.0038220207000506123 -90.01533677845003 7.0699536099736076 14.721935870565384 -3.613412290264856 -1.3783830967714918 34.011093605707096 4.127299147028954 7.736311751141727 45.79096724095579 7.1571338051769775 0 0 0 -49.64676423832841 -66.9287857991405 -17.802490347501305 157.49100777756826 64.33635307472935 -172.8862079993044 16.523607857157007 25.87725615111386 11.711312874199532 0 0 0 -2.6454753622894267 -13.150779935942964 3.274676289650274 -0.42913453727620954 -3.4687845620367304 7.310419580916786 0 0 0 -12.923369854782669 -3.1909395089264856 -21.610767343728043 -51.01290571868492 -39.84150887841613 -26.32995773674254 9.578282569663536 4.490569417884445 -6.200310648354084 -24.23732259259757 -20.21399054291099 -58.797903033285785 0 0 0 0 0 0 0 0 0 0 0 0 0 0 0 0 0 0 0 0 0 0 0 0 0 0 0 0 0 0 0 0 0 0 0 0 0 0 0 0 0 0 0 0 0 -0.0015448283944723819 -0.47722288433926274 8.99292102705525 0 14.41426803593671 0 0 0 0 0 0 0 0 0 0 -46.70918343634825 -8.064467655910853 17.820641024896087 -8.785469426499276 17.354971055720753 29.424110167537048 -28.52867982765966 -17.39809797174543 71.42475180169019 7.0923337052966575 12.688463541726787 -30.868949398814507 0 0 0 0 0 0 0 0 0 0 0 0 0 0 0 0 0 0 0 0 0 0 0 0 0 0 0 0 0 0 0 0 0 0 0 0 0 0 0 0 0 0 0 0 0
-1.399528546410553 -10.273153810780485 -9.293107086061868 97.51258372471231 0.003666070272091155 -90.01472649538374 7.081420433953551 13.821275224982662 -3.7334688258529503 -1.3343668735767118 34.643690226959414 4.218974285073177 7.736310432528266 45.79095744545466 7.157131977297885 0 0 0 -50.824330130263604 -67.46411242667958 -16.35821992998323 157.4910062681783 64.33635307472935 -172.88620604311362 16.197082188588052 25.947878895132078 11.683393400265372 0 0 0 -2.6454753622894267 -13.150779059175848 3.274676289650274 -0.42913453727620954 -3.468783492860847 7.310419580916786 0 0 0 -11.960060152086074 -3.2438088937758907 -21.04866233478016 -51.862592453279426 -40.206845567604816 -26.509555020010595 9.689973313333072 4.509968907915774 -6.71404417492587 -24.463458907033054 -20.17627438637912 -58.417243841679785 0 0 0 0 0 0 0 0 0 0 0 0 0 0 0 0 0 0 0 0 0 0 0 0 0 0 0 0 0 0 0 0 0 0 0 0 0 0 0 0 0 0 0 0 0 -0.0015448283944723819 -0.47722288433926274 8.99292102705525 0 14.122079140964678 0 0 0 0 0 0 0 0 0 0 -46.70918594696439 -8.06447024281408 17.820641024896087 -8.785467658498234 17.354972844711778 29.424115041741434 -28.52868782545612 -17.398090814095745 71.42476765131792 7.092331968397572 12.688463541726787 -30.868949398814507 0 0 0 0 0 0 0 0 0 0 0 0 0 0 0 0 0 0 0 0 0 0 0 0 0 0 0 0 0 0 0 0 0 0 0 0 0 0 0 0 0 0 0 0 0
-1.4218327493329015 -10.273153542388215 -9.2829852083341 97.01195068963658 0.003480240267774435 -90.0140918097291 7.09479128858225 12.919956252105766 -3.853353180116217 -1.2887538159448462 35.276444161972464 4.311989723452462 7.736310432528266 45.79095744545466 7.157131977297885 0 0 0 -52.06502379096096 -67.98778895883991 -14.85113286050694 157.491005956382 64.33635307472935 -172.8862089773998 15.87028847604492 26.018357811869485 11.655004492646997 0 0 0 -2.6454753622894267 -13.150779059175848 3.274676289650274 -0.4291345105475623 -3.468783492860847 7.310418732528876 0 0 0 -10.99610348028428 -3.306182664902358 -20.48682271992561 -52.715921169663446 -40.574364378550484 -26.683103366443035 9.801515383037485 4.530371389537686 -7.227882670681906 -24.689291855515233 -20.137130552600645 -58.03678527534004 0 0 0 0 0 0 0 0 0 0 0 0 0 0 0 0 0 0 0 0 0 0 0 0 0 0 0 0 0 0 0 0 0 0 0 0 0 0 0 0 0 0 0 0 0 -0.0015448283944723819 -0.47722288433926274 8.992920183747227 0 13.829737979297793 0 0 0 0 0 0 0 0 0 0 -46.709178560606965 -8.064469380513001 17.82063938304171 -8.785469426499276 17.354971055720753 29.424110167537048 -28.528678255520944 -17.39809797174543 71.42475180169019 7.092333271071888 12.688460916289506 -30.868947602748875 0 0 0 0 0 0 0 0 0 0 0 0 0 0 0 0 0 0 0 0 0 0 0 0 0 0 0 0 0 0 0 0 0 0 0 0 0 0 0 0 0 0 0 0 0
-1.4441369522552507 -10.273153542388215 -9.272863598998606 96.51122345158441 0.003322334664869254 -90.01346955217808 7.11005420747062 12.018099638451856 -3.9731118445076916 -1.2414944652752258 35.909344421950145 4.406395066988986 7.736310432528266 45.79095744545466 7.157131977297885 0 0 0 -53.37195274987212 -68.49889575564403 -13.278174898592448 157.491005956382 64.33635307472935 -172.8862089773998 15.5432423062767 26.08870415670654 11.626153812008612 0 0 0 -2.6454753622894267 -13.150779059175848 3.274676289650274 -0.42913453727620954 -3.468783492860847 7.310419580916786 0 0 0 -10.031773985646957 -3.3780575436116003 -19.925507368070548 -53.5729700711543 -40.944057806239485 -26.85043389382272 9.912900673133727 4.551776950056262 -7.741812425221975 -24.914812730053825 -20.096583734229704 -57.65656150732677 0 0 0 0 0 0 0 0 0 0 0 0 0 0 0 0 0 0 0 0 0 0 0 0 0 0 0 0 0 0 0 0 0 0 0 0 0 0 0 0 0 0 0 0 0 -0.0015448283944723819 -0.47722288433926274 8.99292102705525 0 13.537248071546937 0 0 0 0 0 0 0 0 0 0 -46.709178560606965 -8.064469380513001 17.82063938304171 -8.785469426499276 17.354971055720753 29.424110167537048 -28.528676683382184 -17.39809797174543 71.42475180169019 7.092333271071888 12.688460916289506 -30.868947602748875 0 0 0 0 0 0 0 0 0 0 0 0 0 0 0 0 0 0 0 0 0 0 0 0 0 0 0 0 0 0 0 0 0 0 0 0 0 0 0 0 0 0 0 0 0
-1.4664414235698708 -10.273153542388215 -9.262741989663112 96.01042050670982 0.003175530620697549 -90.01284599312561 7.127195946950615 11.115814918893978 -4.092790849024866 -1.1925418093730156 36.54234090945314 4.502240026203466 7.736310432528266 45.79095744545466 7.157131977297885 0 0 0 -54.74785670025947 -68.99639364930461 -11.636568314908276 157.49101048455105 64.33634518926551 -172.88620310571523 15.215932931007114 26.158902577629675 11.596835669785504 0 0 0 -2.6454753622894267 -13.150779059175848 3.274676289650274 -0.42913453727620954 -3.468783492860847 7.310419580916786 0 0 0 -9.06734853581045 -3.459421407483122 -19.364995516460823 -54.43370884179378 -41.31570060273694 -27.01137979739935 10.024110099813763 4.574179258001552 -8.255800715075369 -25.140003144932656 -20.054631365964244 -57.27656915566274 0 0 0 0 0 0 0 0 0 0 0 0 0 0 0 0 0 0 0 0 0 0 0 0 0 0 0 0 0 0 0 0 0 0 0 0 0 0 0 0 0 0 0 0 0 -0.0015448283944723819 -0.47722288433926274 8.99292102705525 0 13.244616396639866 0 0 0 0 0 0 0 0 0 0 -46.709178560606965 -8.064469380513001 17.82063938304171 -8.785469426499276 17.354971055720753 29.424110167537048 -28.528678255520944 -17.39809797174543 71.42475180169019 7.092333271071888 12.688460916289506 -30.868947602748875 0 0 0 0 0 0 0 0 0 0 0 0 0 0 0 0 0 0 0 0 0 0 0 0 0 0 0 0 0 0 0 0 0 0 0 0 0 0 0 0 0 0 0 0 0
-1.4887456264922196 -10.273153542388215 -9.252620380327617 95.50955449693981 0.0030326402616063703 -90.01221928744742 7.146214058568893 10.21322961423438 -4.212434258509938 -1.1418439482795237 37.17538134160336 4.599579588120842 7.736310432528266 45.79095744545466 7.157131977297885 0 0 0 -56.19579643535333 -69.47927180865796 -9.923304338580715 157.491005956382 64.33635307472935 -172.8862089773998 14.88837011376414 26.22894910613879 11.56704892863851 0 0 0 -2.6454753622894267 -13.150779935942964 3.274676289650274 -0.42913453727620954 -3.4687845620367304 7.310419580916786 0 0 0 -8.103095030736725 -3.5502419810831634 -18.805543100484268 -55.29815127735061 -41.689191036471456 -27.165786815120754 10.135129398269212 4.597579266651533 -8.769829162081814 -25.364848114512533 -20.01127637044533 -56.896837860944366 0 0 0 0 0 0 0 0 0 0 0 0 0 0 0 0 0 0 0 0 0 0 0 0 0 0 0 0 0 0 0 0 0 0 0 0 0 0 0 0 0 0 0 0 0 -0.0015448283944723819 -0.47722288433926274 8.99292102705525 0 12.951841983487103 0 0 0 0 0 0 0 0 0 0 -46.70918343634825 -8.064467655910853 17.820641024896087 -8.785469426499276 17.354971055720753 29.424110167537048 -28.528678255520944 -17.39809797174543 71.42475180169019 7.092333271071888 12.688460916289506 -30.868947602748875 0 0 0 0 0 0 0 0 0 0 0 0 0 0 0 0 0 0 0 0 0 0 0 0 0 0 0 0 0 0 0 0 0 0 0 0 0 0 0 0 0 0 0 0 0
